Altinn-DINCondensed-Bold.ufo
<glyph name="parenleft" format="2">
  <advance width="278"/>
  <unicode hex="0028"/>
  <outline>
    <contour>
      <point x="39" y="224"/>
      <point x="39" y="336" type="qcurve" smooth="yes"/>
      <point x="39" y="448"/>
      <point x="89" y="663"/>
      <point x="138" y="758" type="qcurve"/>
      <point x="240" y="758" type="line"/>
      <point x="199" y="659"/>
      <point x="156" y="442"/>
      <point x="156" y="336" type="qcurve" smooth="yes"/>
      <point x="156" y="230"/>
      <point x="199" y="13"/>
      <point x="240" y="-86" type="qcurve"/>
      <point x="138" y="-86" type="line"/>
      <point x="89" y="9"/>
    </contour>
  </outline>
</glyph>
<glyph name="parenright" format="2">
  <advance width="278"/>
  <unicode hex="0029"/>
  <outline>
    <contour>
      <point x="123" y="229"/>
      <point x="123" y="336" type="qcurve" smooth="yes"/>
      <point x="123" y="442"/>
      <point x="80" y="658"/>
      <point x="39" y="758" type="qcurve"/>
      <point x="140" y="758" type="line"/>
      <point x="189" y="663"/>
      <point x="240" y="447"/>
      <point x="240" y="336" type="qcurve" smooth="yes"/>
      <point x="240" y="224"/>
      <point x="189" y="9"/>
      <point x="140" y="-86" type="qcurve"/>
      <point x="39" y="-86" type="line"/>
      <point x="80" y="13"/>
    </contour>
  </outline>
</glyph>
<glyph name="two" format="2">
  <advance width="406"/>
  <unicode hex="0032"/>
  <outline>
    <contour>
      <point x="35" y="110" type="line"/>
      <point x="214" y="399" type="line" smooth="yes"/>
      <point x="232" y="430"/>
      <point x="248" y="474"/>
      <point x="248" y="508" type="qcurve" smooth="yes"/>
      <point x="248" y="548" type="line" smooth="yes"/>
      <point x="248" y="604"/>
      <point x="204" y="604" type="qcurve" smooth="yes"/>
      <point x="161" y="604"/>
      <point x="161" y="543" type="qcurve" smooth="yes"/>
      <point x="161" y="496" type="line"/>
      <point x="39" y="496" type="line"/>
      <point x="39" y="558" type="line" smooth="yes"/>
      <point x="39" y="631"/>
      <point x="131" y="717"/>
      <point x="207" y="717" type="qcurve" smooth="yes"/>
      <point x="283" y="717"/>
      <point x="372" y="629"/>
      <point x="372" y="554" type="qcurve" smooth="yes"/>
      <point x="372" y="504" type="line" smooth="yes"/>
      <point x="372" y="458"/>
      <point x="347" y="389"/>
      <point x="321" y="346" type="qcurve" smooth="yes"/>
      <point x="175" y="114" type="line"/>
      <point x="372" y="114" type="line"/>
      <point x="372" y="0" type="line"/>
      <point x="35" y="0" type="line"/>
    </contour>
  </outline>
</glyph>
<glyph name="three" format="2">
  <advance width="408"/>
  <unicode hex="0033"/>
  <outline>
    <contour>
      <point x="34" y="77"/>
      <point x="34" y="153" type="qcurve" smooth="yes"/>
      <point x="34" y="205" type="line"/>
      <point x="156" y="205" type="line"/>
      <point x="156" y="159" type="line" smooth="yes"/>
      <point x="156" y="104"/>
      <point x="200" y="103" type="qcurve" smooth="yes"/>
      <point x="226" y="103"/>
      <point x="244" y="134"/>
      <point x="244" y="166" type="qcurve" smooth="yes"/>
      <point x="244" y="239" type="line" smooth="yes"/>
      <point x="244" y="277"/>
      <point x="223" y="307"/>
      <point x="193" y="307" type="qcurve" smooth="yes"/>
      <point x="166" y="307" type="line"/>
      <point x="166" y="420" type="line"/>
      <point x="195" y="420" type="line" smooth="yes"/>
      <point x="225" y="420"/>
      <point x="244" y="450"/>
      <point x="244" y="482" type="qcurve" smooth="yes"/>
      <point x="244" y="541" type="line" smooth="yes"/>
      <point x="244" y="573"/>
      <point x="224" y="603"/>
      <point x="200" y="603" type="qcurve" smooth="yes"/>
      <point x="156" y="603"/>
      <point x="156" y="548" type="qcurve" smooth="yes"/>
      <point x="156" y="505" type="line"/>
      <point x="34" y="505" type="line"/>
      <point x="34" y="555" type="line" smooth="yes"/>
      <point x="34" y="630"/>
      <point x="123" y="717"/>
      <point x="202" y="717" type="qcurve" smooth="yes"/>
      <point x="282" y="717"/>
      <point x="370" y="629"/>
      <point x="370" y="548" type="qcurve" smooth="yes"/>
      <point x="370" y="500" type="line" smooth="yes"/>
      <point x="370" y="449"/>
      <point x="339" y="387"/>
      <point x="299" y="369" type="qcurve"/>
      <point x="342" y="351"/>
      <point x="370" y="289"/>
      <point x="370" y="232" type="qcurve" smooth="yes"/>
      <point x="370" y="160" type="line" smooth="yes"/>
      <point x="370" y="80"/>
      <point x="281" y="-10"/>
      <point x="201" y="-10" type="qcurve" smooth="yes"/>
      <point x="120" y="-10"/>
    </contour>
  </outline>
</glyph>
<glyph name="five" format="2">
  <advance width="415"/>
  <unicode hex="0035"/>
  <outline>
    <contour>
      <point x="39" y="78"/>
      <point x="39" y="162" type="qcurve" smooth="yes"/>
      <point x="39" y="195" type="line"/>
      <point x="163" y="195" type="line"/>
      <point x="163" y="167" type="line" smooth="yes"/>
      <point x="163" y="133"/>
      <point x="183" y="102"/>
      <point x="207" y="102" type="qcurve" smooth="yes"/>
      <point x="231" y="102"/>
      <point x="251" y="133"/>
      <point x="251" y="167" type="qcurve" smooth="yes"/>
      <point x="251" y="291" type="line" smooth="yes"/>
      <point x="251" y="351"/>
      <point x="207" y="351" type="qcurve" smooth="yes"/>
      <point x="191" y="351"/>
      <point x="170" y="334"/>
      <point x="162" y="315" type="qcurve"/>
      <point x="47" y="315" type="line"/>
      <point x="47" y="707" type="line"/>
      <point x="377" y="707" type="line"/>
      <point x="377" y="592" type="line"/>
      <point x="162" y="592" type="line"/>
      <point x="162" y="434" type="line"/>
      <point x="192" y="461"/>
      <point x="242" y="461" type="qcurve" smooth="yes"/>
      <point x="377" y="461"/>
      <point x="377" y="296" type="qcurve" smooth="yes"/>
      <point x="377" y="165" type="line" smooth="yes"/>
      <point x="377" y="78"/>
      <point x="290" y="-10"/>
      <point x="208" y="-10" type="qcurve" smooth="yes"/>
      <point x="126" y="-10"/>
    </contour>
  </outline>
</glyph>
<glyph name="eight" format="2">
  <advance width="419"/>
  <unicode hex="0038"/>
  <outline>
    <contour>
      <point x="39" y="81"/>
      <point x="39" y="168" type="qcurve" smooth="yes"/>
      <point x="39" y="241" type="line" smooth="yes"/>
      <point x="39" y="331"/>
      <point x="99" y="370" type="qcurve"/>
      <point x="69" y="387"/>
      <point x="39" y="453"/>
      <point x="39" y="487" type="qcurve" smooth="yes"/>
      <point x="39" y="554" type="line" smooth="yes"/>
      <point x="39" y="629"/>
      <point x="132" y="717"/>
      <point x="210" y="717" type="qcurve" smooth="yes"/>
      <point x="289" y="717"/>
      <point x="381" y="629"/>
      <point x="381" y="554" type="qcurve" smooth="yes"/>
      <point x="381" y="487" type="line" smooth="yes"/>
      <point x="381" y="452"/>
      <point x="349" y="387"/>
      <point x="321" y="370" type="qcurve"/>
      <point x="381" y="332"/>
      <point x="381" y="241" type="qcurve" smooth="yes"/>
      <point x="381" y="168" type="line" smooth="yes"/>
      <point x="381" y="81"/>
      <point x="292" y="-10"/>
      <point x="210" y="-10" type="qcurve" smooth="yes"/>
      <point x="127" y="-10"/>
    </contour>
    <contour>
      <point x="254" y="452"/>
      <point x="254" y="481" type="qcurve" smooth="yes"/>
      <point x="254" y="553" type="line" smooth="yes"/>
      <point x="254" y="578"/>
      <point x="231" y="605"/>
      <point x="210" y="605" type="qcurve" smooth="yes"/>
      <point x="188" y="605"/>
      <point x="166" y="578"/>
      <point x="166" y="553" type="qcurve" smooth="yes"/>
      <point x="166" y="481" type="line" smooth="yes"/>
      <point x="166" y="451"/>
      <point x="185" y="420"/>
      <point x="210" y="420" type="qcurve" smooth="yes"/>
      <point x="236" y="420"/>
    </contour>
    <contour>
      <point x="254" y="134"/>
      <point x="254" y="167" type="qcurve" smooth="yes"/>
      <point x="254" y="250" type="line" smooth="yes"/>
      <point x="254" y="310"/>
      <point x="210" y="310" type="qcurve" smooth="yes"/>
      <point x="185" y="310"/>
      <point x="166" y="279"/>
      <point x="166" y="250" type="qcurve" smooth="yes"/>
      <point x="166" y="167" type="line" smooth="yes"/>
      <point x="166" y="134"/>
      <point x="184" y="101"/>
      <point x="210" y="101" type="qcurve" smooth="yes"/>
      <point x="237" y="101"/>
    </contour>
  </outline>
</glyph>
<glyph name="at" format="2">
  <advance width="731"/>
  <unicode hex="0040"/>
  <outline>
    <contour>
      <point x="118" y="-55"/>
      <point x="39" y="99"/>
      <point x="39" y="204" type="qcurve" smooth="yes"/>
      <point x="39" y="379" type="line" smooth="yes"/>
      <point x="39" y="482"/>
      <point x="120" y="636"/>
      <point x="267" y="719"/>
      <point x="366" y="719" type="qcurve" smooth="yes"/>
      <point x="464" y="719"/>
      <point x="612" y="636"/>
      <point x="692" y="483"/>
      <point x="692" y="383" type="qcurve" smooth="yes"/>
      <point x="692" y="221" type="line" smooth="yes"/>
      <point x="692" y="141"/>
      <point x="620" y="57"/>
      <point x="551" y="57" type="qcurve" smooth="yes"/>
      <point x="508" y="57"/>
      <point x="445" y="93"/>
      <point x="429" y="126" type="qcurve"/>
      <point x="417" y="90"/>
      <point x="369" y="57"/>
      <point x="328" y="57" type="qcurve" smooth="yes"/>
      <point x="272" y="57"/>
      <point x="220" y="133"/>
      <point x="220" y="211" type="qcurve" smooth="yes"/>
      <point x="220" y="373" type="line" smooth="yes"/>
      <point x="220" y="443"/>
      <point x="269" y="515"/>
      <point x="325" y="515" type="qcurve" smooth="yes"/>
      <point x="353" y="515"/>
      <point x="391" y="493"/>
      <point x="404" y="468" type="qcurve"/>
      <point x="404" y="507" type="line"/>
      <point x="512" y="507" type="line"/>
      <point x="512" y="197" type="line" smooth="yes"/>
      <point x="512" y="173"/>
      <point x="534" y="150"/>
      <point x="552" y="150" type="qcurve" smooth="yes"/>
      <point x="575" y="150"/>
      <point x="592" y="180"/>
      <point x="592" y="207" type="qcurve" smooth="yes"/>
      <point x="592" y="392" type="line" smooth="yes"/>
      <point x="592" y="504"/>
      <point x="475" y="625"/>
      <point x="366" y="625" type="qcurve" smooth="yes"/>
      <point x="254" y="625"/>
      <point x="141" y="501"/>
      <point x="141" y="378" type="qcurve" smooth="yes"/>
      <point x="141" y="214" type="line" smooth="yes"/>
      <point x="141" y="-43"/>
      <point x="366" y="-43" type="qcurve" smooth="yes"/>
      <point x="416" y="-43"/>
      <point x="490" y="-20"/>
      <point x="528" y="6" type="qcurve"/>
      <point x="581" y="-68" type="line"/>
      <point x="532" y="-104"/>
      <point x="426" y="-137"/>
      <point x="366" y="-137" type="qcurve" smooth="yes"/>
      <point x="264" y="-137"/>
    </contour>
    <contour>
      <point x="406" y="183"/>
      <point x="406" y="211" type="qcurve" smooth="yes"/>
      <point x="406" y="368" type="line" smooth="yes"/>
      <point x="406" y="421"/>
      <point x="366" y="421" type="qcurve" smooth="yes"/>
      <point x="327" y="421"/>
      <point x="327" y="368" type="qcurve" smooth="yes"/>
      <point x="327" y="208" type="line" smooth="yes"/>
      <point x="327" y="180"/>
      <point x="344" y="152"/>
      <point x="366" y="152" type="qcurve" smooth="yes"/>
      <point x="389" y="152"/>
    </contour>
  </outline>
</glyph>
<glyph name="A" format="2">
  <advance width="496"/>
  <unicode hex="0041"/>
  <outline>
    <contour>
      <point x="331" y="137" type="line"/>
      <point x="166" y="137" type="line"/>
      <point x="137" y="0" type="line"/>
      <point x="6" y="0" type="line"/>
      <point x="187" y="707" type="line"/>
      <point x="310" y="707" type="line"/>
      <point x="490" y="0" type="line"/>
      <point x="359" y="0" type="line"/>
    </contour>
    <contour>
      <point x="308" y="250" type="line"/>
      <point x="249" y="537" type="line"/>
      <point x="189" y="250" type="line"/>
    </contour>
  </outline>
</glyph>
<glyph name="B" format="2">
  <advance width="466"/>
  <unicode hex="0042"/>
  <outline>
    <contour>
      <point x="428" y="270"/>
      <point x="428" y="205" type="qcurve" smooth="yes"/>
      <point x="428" y="97"/>
      <point x="340" y="0"/>
      <point x="234" y="0" type="qcurve" smooth="yes"/>
      <point x="43" y="0" type="line"/>
      <point x="43" y="707" type="line"/>
      <point x="234" y="707" type="line" smooth="yes"/>
      <point x="337" y="707"/>
      <point x="426" y="615"/>
      <point x="426" y="516" type="qcurve" smooth="yes"/>
      <point x="426" y="464"/>
      <point x="391" y="390"/>
      <point x="349" y="371" type="qcurve"/>
      <point x="395" y="350"/>
    </contour>
    <contour>
      <point x="168" y="594" type="line"/>
      <point x="168" y="423" type="line"/>
      <point x="221" y="423" type="line" smooth="yes"/>
      <point x="265" y="423"/>
      <point x="300" y="463"/>
      <point x="300" y="508" type="qcurve" smooth="yes"/>
      <point x="300" y="555"/>
      <point x="265" y="594"/>
      <point x="221" y="594" type="qcurve" smooth="yes"/>
    </contour>
    <contour>
      <point x="302" y="159"/>
      <point x="302" y="214" type="qcurve" smooth="yes"/>
      <point x="302" y="267"/>
      <point x="264" y="314"/>
      <point x="220" y="314" type="qcurve" smooth="yes"/>
      <point x="168" y="314" type="line"/>
      <point x="168" y="113" type="line"/>
      <point x="220" y="113" type="line" smooth="yes"/>
      <point x="267" y="113"/>
    </contour>
  </outline>
</glyph>
<glyph name="D" format="2">
  <advance width="474"/>
  <unicode hex="0044"/>
  <outline>
    <contour>
      <point x="43" y="707" type="line"/>
      <point x="239" y="707" type="line" smooth="yes"/>
      <point x="328" y="707"/>
      <point x="435" y="604"/>
      <point x="435" y="504" type="qcurve" smooth="yes"/>
      <point x="435" y="203" type="line" smooth="yes"/>
      <point x="435" y="104"/>
      <point x="323" y="0"/>
      <point x="232" y="0" type="qcurve" smooth="yes"/>
      <point x="43" y="0" type="line"/>
    </contour>
    <contour>
      <point x="236" y="113" type="line" smooth="yes"/>
      <point x="272" y="113"/>
      <point x="309" y="168"/>
      <point x="309" y="217" type="qcurve" smooth="yes"/>
      <point x="309" y="482" type="line" smooth="yes"/>
      <point x="309" y="536"/>
      <point x="272" y="593"/>
      <point x="236" y="593" type="qcurve" smooth="yes"/>
      <point x="168" y="593" type="line"/>
      <point x="168" y="113" type="line"/>
    </contour>
  </outline>
</glyph>
<glyph name="E" format="2">
  <advance width="384"/>
  <unicode hex="0045"/>
  <outline>
    <contour>
      <point x="168" y="593" type="line"/>
      <point x="168" y="416" type="line"/>
      <point x="332" y="416" type="line"/>
      <point x="332" y="303" type="line"/>
      <point x="168" y="303" type="line"/>
      <point x="168" y="113" type="line"/>
      <point x="358" y="113" type="line"/>
      <point x="358" y="0" type="line"/>
      <point x="43" y="0" type="line"/>
      <point x="43" y="707" type="line"/>
      <point x="358" y="707" type="line"/>
      <point x="358" y="593" type="line"/>
    </contour>
  </outline>
</glyph>
<glyph name="F" format="2">
  <advance width="379"/>
  <unicode hex="0046"/>
  <outline>
    <contour>
      <point x="169" y="593" type="line"/>
      <point x="169" y="413" type="line"/>
      <point x="333" y="413" type="line"/>
      <point x="333" y="299" type="line"/>
      <point x="169" y="299" type="line"/>
      <point x="169" y="0" type="line"/>
      <point x="43" y="0" type="line"/>
      <point x="43" y="707" type="line"/>
      <point x="358" y="707" type="line"/>
      <point x="358" y="593" type="line"/>
    </contour>
  </outline>
</glyph>
<glyph name="M" format="2">
  <advance width="584"/>
  <unicode hex="004D"/>
  <outline>
    <contour>
      <point x="542" y="707" type="line"/>
      <point x="542" y="0" type="line"/>
      <point x="416" y="0" type="line"/>
      <point x="416" y="414" type="line"/>
      <point x="326" y="137" type="line"/>
      <point x="258" y="137" type="line"/>
      <point x="169" y="411" type="line"/>
      <point x="169" y="0" type="line"/>
      <point x="43" y="0" type="line"/>
      <point x="43" y="707" type="line"/>
      <point x="169" y="707" type="line"/>
      <point x="292" y="334" type="line"/>
      <point x="416" y="707" type="line"/>
    </contour>
  </outline>
</glyph>
<glyph name="O" format="2">
  <advance width="479"/>
  <unicode hex="004F"/>
  <outline>
    <contour>
      <point x="39" y="95"/>
      <point x="39" y="195" type="qcurve" smooth="yes"/>
      <point x="39" y="513" type="line" smooth="yes"/>
      <point x="39" y="613"/>
      <point x="152" y="717"/>
      <point x="244" y="717" type="qcurve" smooth="yes"/>
      <point x="333" y="717"/>
      <point x="440" y="613"/>
      <point x="440" y="513" type="qcurve" smooth="yes"/>
      <point x="440" y="195" type="line" smooth="yes"/>
      <point x="440" y="97"/>
      <point x="327" y="-8"/>
      <point x="237" y="-8" type="qcurve" smooth="yes"/>
      <point x="145" y="-8"/>
    </contour>
    <contour>
      <point x="314" y="160"/>
      <point x="314" y="209" type="qcurve" smooth="yes"/>
      <point x="314" y="493" type="line" smooth="yes"/>
      <point x="314" y="547"/>
      <point x="278" y="603"/>
      <point x="241" y="603" type="qcurve" smooth="yes"/>
      <point x="201" y="603"/>
      <point x="165" y="548"/>
      <point x="165" y="493" type="qcurve" smooth="yes"/>
      <point x="165" y="209" type="line" smooth="yes"/>
      <point x="165" y="106"/>
      <point x="241" y="105" type="qcurve" smooth="yes"/>
      <point x="276" y="105"/>
    </contour>
  </outline>
</glyph>
<glyph name="P" format="2">
  <advance width="444"/>
  <unicode hex="0050"/>
  <outline>
    <contour>
      <point x="427" y="596"/>
      <point x="427" y="484" type="qcurve" smooth="yes"/>
      <point x="427" y="371"/>
      <point x="336" y="261"/>
      <point x="233" y="261" type="qcurve" smooth="yes"/>
      <point x="168" y="261" type="line"/>
      <point x="168" y="0" type="line"/>
      <point x="43" y="0" type="line"/>
      <point x="43" y="707" type="line"/>
      <point x="233" y="707" type="line" smooth="yes"/>
      <point x="338" y="707"/>
    </contour>
    <contour>
      <point x="301" y="428"/>
      <point x="301" y="484" type="qcurve" smooth="yes"/>
      <point x="301" y="540"/>
      <point x="269" y="594"/>
      <point x="229" y="594" type="qcurve" smooth="yes"/>
      <point x="168" y="594" type="line"/>
      <point x="168" y="375" type="line"/>
      <point x="229" y="375" type="line" smooth="yes"/>
      <point x="269" y="375"/>
    </contour>
  </outline>
</glyph>
<glyph name="U" format="2">
  <advance width="471"/>
  <unicode hex="0055"/>
  <outline>
    <contour>
      <point x="93" y="40"/>
      <point x="43" y="128"/>
      <point x="43" y="185" type="qcurve" smooth="yes"/>
      <point x="43" y="707" type="line"/>
      <point x="169" y="707" type="line"/>
      <point x="169" y="188" type="line" smooth="yes"/>
      <point x="169" y="145"/>
      <point x="202" y="105"/>
      <point x="236" y="105" type="qcurve" smooth="yes"/>
      <point x="303" y="105"/>
      <point x="302" y="188" type="qcurve" smooth="yes"/>
      <point x="302" y="707" type="line"/>
      <point x="428" y="707" type="line"/>
      <point x="428" y="185" type="line" smooth="yes"/>
      <point x="428" y="128"/>
      <point x="379" y="40"/>
      <point x="291" y="-8"/>
      <point x="236" y="-8" type="qcurve" smooth="yes"/>
      <point x="180" y="-8"/>
    </contour>
  </outline>
</glyph>
<glyph name="V" format="2">
  <advance width="459"/>
  <unicode hex="0056"/>
  <outline>
    <contour>
      <point x="6" y="707" type="line"/>
      <point x="144" y="707" type="line"/>
      <point x="229" y="178" type="line"/>
      <point x="315" y="707" type="line"/>
      <point x="454" y="707" type="line"/>
      <point x="295" y="0" type="line"/>
      <point x="165" y="0" type="line"/>
    </contour>
  </outline>
</glyph>
<glyph name="a" format="2">
  <advance width="414"/>
  <unicode hex="0061"/>
  <outline>
    <contour>
      <point x="373" y="456"/>
      <point x="373" y="377" type="qcurve" smooth="yes"/>
      <point x="373" y="0" type="line"/>
      <point x="262" y="0" type="line"/>
      <point x="262" y="45" type="line"/>
      <point x="240" y="17"/>
      <point x="200" y="-8"/>
      <point x="167" y="-8" type="qcurve" smooth="yes"/>
      <point x="99" y="-8"/>
      <point x="31" y="80"/>
      <point x="31" y="159" type="qcurve" smooth="yes"/>
      <point x="31" y="235"/>
      <point x="123" y="317"/>
      <point x="209" y="317" type="qcurve" smooth="yes"/>
      <point x="254" y="317" type="line"/>
      <point x="254" y="386" type="line" smooth="yes"/>
      <point x="254" y="415"/>
      <point x="228" y="444"/>
      <point x="204" y="444" type="qcurve" smooth="yes"/>
      <point x="181" y="444"/>
      <point x="155" y="416"/>
      <point x="155" y="391" type="qcurve" smooth="yes"/>
      <point x="155" y="383" type="line"/>
      <point x="45" y="383" type="line"/>
      <point x="45" y="387" type="line" smooth="yes"/>
      <point x="45" y="467"/>
      <point x="135" y="549"/>
      <point x="207" y="549" type="qcurve" smooth="yes"/>
      <point x="286" y="549"/>
    </contour>
    <contour>
      <point x="254" y="131"/>
      <point x="254" y="162" type="qcurve" smooth="yes"/>
      <point x="254" y="234" type="line"/>
      <point x="223" y="234" type="line" smooth="yes"/>
      <point x="187" y="234"/>
      <point x="150" y="202"/>
      <point x="150" y="164" type="qcurve" smooth="yes"/>
      <point x="150" y="130"/>
      <point x="176" y="95"/>
      <point x="202" y="95" type="qcurve" smooth="yes"/>
      <point x="224" y="95"/>
    </contour>
  </outline>
</glyph>
<glyph name="d" format="2">
  <advance width="419"/>
  <unicode hex="0064"/>
  <outline>
    <contour>
      <point x="39" y="76"/>
      <point x="39" y="167" type="qcurve" smooth="yes"/>
      <point x="39" y="374" type="line" smooth="yes"/>
      <point x="39" y="465"/>
      <point x="110" y="549"/>
      <point x="169" y="549" type="qcurve" smooth="yes"/>
      <point x="199" y="549"/>
      <point x="246" y="522"/>
      <point x="260" y="498" type="qcurve"/>
      <point x="260" y="707" type="line"/>
      <point x="378" y="707" type="line"/>
      <point x="378" y="0" type="line"/>
      <point x="264" y="0" type="line"/>
      <point x="264" y="38" type="line"/>
      <point x="225" y="-8"/>
      <point x="171" y="-8" type="qcurve" smooth="yes"/>
      <point x="112" y="-8"/>
    </contour>
    <contour>
      <point x="262" y="186" type="qcurve" smooth="yes"/>
      <point x="262" y="354" type="line" smooth="yes"/>
      <point x="262" y="400"/>
      <point x="236" y="442"/>
      <point x="209" y="442" type="qcurve" smooth="yes"/>
      <point x="183" y="442"/>
      <point x="158" y="400"/>
      <point x="158" y="354" type="qcurve" smooth="yes"/>
      <point x="158" y="186" type="line" smooth="yes"/>
      <point x="158" y="139"/>
      <point x="183" y="98"/>
      <point x="210" y="98" type="qcurve" smooth="yes"/>
      <point x="262" y="98"/>
    </contour>
  </outline>
</glyph>
<glyph name="e" format="2">
  <advance width="420"/>
  <unicode hex="0065"/>
  <outline>
    <contour>
      <point x="158" y="228" type="line"/>
      <point x="158" y="179" type="line" smooth="yes"/>
      <point x="158" y="96"/>
      <point x="211" y="96" type="qcurve" smooth="yes"/>
      <point x="263" y="96"/>
      <point x="263" y="165" type="qcurve" smooth="yes"/>
      <point x="263" y="170" type="line"/>
      <point x="378" y="170" type="line"/>
      <point x="378" y="164" type="line" smooth="yes"/>
      <point x="378" y="79"/>
      <point x="292" y="-8"/>
      <point x="211" y="-8" type="qcurve" smooth="yes"/>
      <point x="129" y="-8"/>
      <point x="39" y="90"/>
      <point x="39" y="204" type="qcurve" smooth="yes"/>
      <point x="39" y="336" type="line" smooth="yes"/>
      <point x="39" y="447"/>
      <point x="124" y="549"/>
      <point x="208" y="549" type="qcurve" smooth="yes"/>
      <point x="291" y="549"/>
      <point x="382" y="444"/>
      <point x="382" y="336" type="qcurve" smooth="yes"/>
      <point x="382" y="228" type="line"/>
    </contour>
    <contour>
      <point x="158" y="400"/>
      <point x="158" y="354" type="qcurve" smooth="yes"/>
      <point x="158" y="314" type="line"/>
      <point x="263" y="314" type="line"/>
      <point x="263" y="354" type="line" smooth="yes"/>
      <point x="263" y="400"/>
      <point x="237" y="442"/>
      <point x="210" y="442" type="qcurve" smooth="yes"/>
      <point x="184" y="442"/>
    </contour>
  </outline>
</glyph>
<glyph name="m" format="2">
  <advance width="636"/>
  <unicode hex="006D"/>
  <outline>
    <contour>
      <point x="42" y="541" type="line"/>
      <point x="156" y="541" type="line"/>
      <point x="156" y="501" type="line"/>
      <point x="193" y="549"/>
      <point x="247" y="549" type="qcurve" smooth="yes"/>
      <point x="280" y="549"/>
      <point x="335" y="519"/>
      <point x="352" y="493" type="qcurve"/>
      <point x="372" y="518"/>
      <point x="429" y="549"/>
      <point x="459" y="549" type="qcurve" smooth="yes"/>
      <point x="533" y="549"/>
      <point x="595" y="467"/>
      <point x="595" y="386" type="qcurve" smooth="yes"/>
      <point x="595" y="0" type="line"/>
      <point x="476" y="0" type="line"/>
      <point x="476" y="385" type="line" smooth="yes"/>
      <point x="476" y="413"/>
      <point x="449" y="442"/>
      <point x="427" y="442" type="qcurve" smooth="yes"/>
      <point x="405" y="442"/>
      <point x="378" y="413"/>
      <point x="378" y="385" type="qcurve" smooth="yes"/>
      <point x="378" y="0" type="line"/>
      <point x="259" y="0" type="line"/>
      <point x="259" y="385" type="line" smooth="yes"/>
      <point x="259" y="413"/>
      <point x="231" y="442"/>
      <point x="210" y="442" type="qcurve" smooth="yes"/>
      <point x="187" y="442"/>
      <point x="161" y="413"/>
      <point x="161" y="385" type="qcurve" smooth="yes"/>
      <point x="161" y="0" type="line"/>
      <point x="42" y="0" type="line"/>
    </contour>
  </outline>
</glyph>
<glyph name="n" format="2">
  <advance width="419"/>
  <unicode hex="006E"/>
  <outline>
    <contour>
      <point x="42" y="541" type="line"/>
      <point x="156" y="541" type="line"/>
      <point x="156" y="501" type="line"/>
      <point x="194" y="549"/>
      <point x="246" y="549" type="qcurve" smooth="yes"/>
      <point x="378" y="549"/>
      <point x="378" y="386" type="qcurve" smooth="yes"/>
      <point x="378" y="0" type="line"/>
      <point x="259" y="0" type="line"/>
      <point x="259" y="385" type="line" smooth="yes"/>
      <point x="259" y="413"/>
      <point x="231" y="442"/>
      <point x="210" y="442" type="qcurve" smooth="yes"/>
      <point x="187" y="442"/>
      <point x="161" y="413"/>
      <point x="161" y="385" type="qcurve" smooth="yes"/>
      <point x="161" y="0" type="line"/>
      <point x="42" y="0" type="line"/>
    </contour>
  </outline>
</glyph>
<glyph name="r" format="2">
  <advance width="313"/>
  <unicode hex="0072"/>
  <outline>
    <contour>
      <point x="42" y="541" type="line"/>
      <point x="156" y="541" type="line"/>
      <point x="156" y="490" type="line"/>
      <point x="176" y="523"/>
      <point x="228" y="551"/>
      <point x="262" y="551" type="qcurve" smooth="yes"/>
      <point x="282" y="551"/>
      <point x="299" y="547" type="qcurve"/>
      <point x="299" y="422" type="line"/>
      <point x="271" y="432"/>
      <point x="245" y="432" type="qcurve" smooth="yes"/>
      <point x="207" y="432"/>
      <point x="161" y="384"/>
      <point x="161" y="340" type="qcurve" smooth="yes"/>
      <point x="161" y="0" type="line"/>
      <point x="42" y="0" type="line"/>
    </contour>
  </outline>
</glyph>
<glyph name="s" format="2">
  <advance width="401"/>
  <unicode hex="0073"/>
  <outline>
    <contour>
      <point x="31" y="79"/>
      <point x="31" y="156" type="qcurve" smooth="yes"/>
      <point x="31" y="162" type="line"/>
      <point x="145" y="162" type="line"/>
      <point x="145" y="156" type="line" smooth="yes"/>
      <point x="145" y="125"/>
      <point x="176" y="91"/>
      <point x="204" y="91" type="qcurve" smooth="yes"/>
      <point x="231" y="91"/>
      <point x="258" y="121"/>
      <point x="258" y="150" type="qcurve" smooth="yes"/>
      <point x="258" y="172"/>
      <point x="232" y="203"/>
      <point x="205" y="215" type="qcurve" smooth="yes"/>
      <point x="143" y="242" type="line" smooth="yes"/>
      <point x="81" y="269"/>
      <point x="34" y="340"/>
      <point x="34" y="394" type="qcurve" smooth="yes"/>
      <point x="34" y="461"/>
      <point x="126" y="549"/>
      <point x="201" y="549" type="qcurve" smooth="yes"/>
      <point x="276" y="549"/>
      <point x="368" y="461"/>
      <point x="368" y="390" type="qcurve" smooth="yes"/>
      <point x="368" y="380" type="line"/>
      <point x="253" y="380" type="line"/>
      <point x="253" y="386" type="line" smooth="yes"/>
      <point x="253" y="418"/>
      <point x="224" y="451"/>
      <point x="200" y="451" type="qcurve" smooth="yes"/>
      <point x="176" y="451"/>
      <point x="148" y="424"/>
      <point x="148" y="399" type="qcurve" smooth="yes"/>
      <point x="148" y="377"/>
      <point x="169" y="349"/>
      <point x="198" y="337" type="qcurve" smooth="yes"/>
      <point x="264" y="308" type="line" smooth="yes"/>
      <point x="322" y="282"/>
      <point x="374" y="210"/>
      <point x="374" y="152" type="qcurve" smooth="yes"/>
      <point x="374" y="81"/>
      <point x="281" y="-8"/>
      <point x="202" y="-8" type="qcurve" smooth="yes"/>
      <point x="123" y="-8"/>
    </contour>
  </outline>
</glyph>
<glyph name="t" format="2">
  <advance width="309"/>
  <unicode hex="0074"/>
  <outline>
    <contour>
      <point x="199" y="458" type="line"/>
      <point x="199" y="175" type="line" smooth="yes"/>
      <point x="199" y="106"/>
      <point x="267" y="106" type="qcurve" smooth="yes"/>
      <point x="271" y="106" type="line"/>
      <point x="271" y="0" type="line"/>
      <point x="267" y="0" type="line" smooth="yes"/>
      <point x="175" y="0"/>
      <point x="80" y="81"/>
      <point x="80" y="168" type="qcurve" smooth="yes"/>
      <point x="80" y="458" type="line"/>
      <point x="19" y="458" type="line"/>
      <point x="19" y="541" type="line"/>
      <point x="80" y="541" type="line"/>
      <point x="80" y="636" type="line"/>
      <point x="199" y="684" type="line"/>
      <point x="199" y="541" type="line"/>
      <point x="285" y="541" type="line"/>
      <point x="285" y="458" type="line"/>
    </contour>
  </outline>
</glyph>
<glyph name="u" format="2">
  <advance width="419"/>
  <unicode hex="0075"/>
  <outline>
    <contour>
      <point x="42" y="87"/>
      <point x="42" y="181" type="qcurve" smooth="yes"/>
      <point x="42" y="541" type="line"/>
      <point x="161" y="541" type="line"/>
      <point x="161" y="206" type="line" smooth="yes"/>
      <point x="161" y="164"/>
      <point x="166" y="123"/>
      <point x="186" y="98"/>
      <point x="210" y="98" type="qcurve" smooth="yes"/>
      <point x="234" y="98"/>
      <point x="254" y="120"/>
      <point x="259" y="161"/>
      <point x="259" y="206" type="qcurve" smooth="yes"/>
      <point x="259" y="541" type="line"/>
      <point x="378" y="541" type="line"/>
      <point x="378" y="181" type="line" smooth="yes"/>
      <point x="378" y="116"/>
      <point x="349" y="36"/>
      <point x="276" y="-8"/>
      <point x="210" y="-8" type="qcurve" smooth="yes"/>
      <point x="113" y="-8"/>
    </contour>
  </outline>
</glyph>
<glyph name="w" format="2">
  <advance width="623"/>
  <unicode hex="0077"/>
  <outline>
    <contour>
      <point x="11" y="541" type="line"/>
      <point x="142" y="541" type="line"/>
      <point x="197" y="189" type="line"/>
      <point x="262" y="541" type="line"/>
      <point x="360" y="541" type="line"/>
      <point x="426" y="189" type="line"/>
      <point x="480" y="541" type="line"/>
      <point x="612" y="541" type="line"/>
      <point x="488" y="0" type="line"/>
      <point x="373" y="0" type="line"/>
      <point x="311" y="331" type="line"/>
      <point x="249" y="0" type="line"/>
      <point x="134" y="0" type="line"/>
    </contour>
  </outline>
</glyph>
<glyph name="z" format="2">
  <advance width="393"/>
  <unicode hex="007A"/>
  <outline>
    <contour>
      <point x="354" y="440" type="line"/>
      <point x="161" y="100" type="line"/>
      <point x="354" y="100" type="line"/>
      <point x="354" y="0" type="line"/>
      <point x="39" y="0" type="line"/>
      <point x="39" y="100" type="line"/>
      <point x="236" y="440" type="line"/>
      <point x="39" y="440" type="line"/>
      <point x="39" y="541" type="line"/>
      <point x="354" y="541" type="line"/>
    </contour>
  </outline>
</glyph>
<glyph name="braceleft" format="2">
  <advance width="326"/>
  <unicode hex="007B"/>
  <outline>
    <contour>
      <point x="106" y="-20"/>
      <point x="106" y="41" type="qcurve" smooth="yes"/>
      <point x="106" y="212" type="line" smooth="yes"/>
      <point x="106" y="252"/>
      <point x="78" y="286"/>
      <point x="39" y="286" type="qcurve"/>
      <point x="39" y="391" type="line"/>
      <point x="78" y="391"/>
      <point x="106" y="425"/>
      <point x="106" y="466" type="qcurve" smooth="yes"/>
      <point x="106" y="631" type="line" smooth="yes"/>
      <point x="106" y="692"/>
      <point x="170" y="758"/>
      <point x="230" y="758" type="qcurve" smooth="yes"/>
      <point x="288" y="758" type="line"/>
      <point x="288" y="652" type="line"/>
      <point x="267" y="652" type="line" smooth="yes"/>
      <point x="245" y="652"/>
      <point x="224" y="628"/>
      <point x="224" y="605" type="qcurve" smooth="yes"/>
      <point x="224" y="475" type="line" smooth="yes"/>
      <point x="224" y="409"/>
      <point x="201" y="353"/>
      <point x="162" y="339" type="qcurve"/>
      <point x="201" y="324"/>
      <point x="224" y="266"/>
      <point x="224" y="202" type="qcurve" smooth="yes"/>
      <point x="224" y="67" type="line" smooth="yes"/>
      <point x="224" y="44"/>
      <point x="246" y="19"/>
      <point x="267" y="19" type="qcurve" smooth="yes"/>
      <point x="288" y="19" type="line"/>
      <point x="288" y="-86" type="line"/>
      <point x="230" y="-86" type="line" smooth="yes"/>
      <point x="170" y="-86"/>
    </contour>
  </outline>
</glyph>
<glyph name="asciitilde" format="2">
  <advance width="429"/>
  <unicode hex="007E"/>
  <outline>
    <contour>
      <point x="26" y="244" type="line"/>
      <point x="52" y="297"/>
      <point x="108" y="344"/>
      <point x="144" y="344" type="qcurve" smooth="yes"/>
      <point x="164" y="344"/>
      <point x="200" y="330"/>
      <point x="221" y="316" type="qcurve" smooth="yes"/>
      <point x="233" y="309"/>
      <point x="258" y="298"/>
      <point x="267" y="298" type="qcurve" smooth="yes"/>
      <point x="283" y="298"/>
      <point x="305" y="318"/>
      <point x="323" y="350" type="qcurve"/>
      <point x="395" y="307" type="line"/>
      <point x="370" y="254"/>
      <point x="314" y="207"/>
      <point x="276" y="207" type="qcurve" smooth="yes"/>
      <point x="257" y="207"/>
      <point x="220" y="221"/>
      <point x="200" y="234" type="qcurve" smooth="yes"/>
      <point x="197" y="236"/>
      <point x="177" y="248"/>
      <point x="161" y="253"/>
      <point x="155" y="253" type="qcurve" smooth="yes"/>
      <point x="140" y="253"/>
      <point x="116" y="232"/>
      <point x="99" y="202" type="qcurve"/>
    </contour>
  </outline>
</glyph>
<glyph name="exclamdown" format="2">
  <advance width="212"/>
  <unicode hex="00A1"/>
  <outline>
    <contour>
      <point x="47" y="541" type="line"/>
      <point x="166" y="541" type="line"/>
      <point x="166" y="407" type="line"/>
      <point x="47" y="407" type="line"/>
    </contour>
    <contour>
      <point x="67" y="314" type="line"/>
      <point x="146" y="314" type="line"/>
      <point x="171" y="-162" type="line"/>
      <point x="42" y="-162" type="line"/>
    </contour>
  </outline>
</glyph>
<glyph name="cent" format="2">
  <advance width="453"/>
  <unicode hex="00A2"/>
  <outline>
    <contour>
      <point x="263" y="352" type="line"/>
      <point x="263" y="371" type="line" smooth="yes"/>
      <point x="263" y="407"/>
      <point x="236" y="442"/>
      <point x="211" y="442" type="qcurve" smooth="yes"/>
      <point x="184" y="442"/>
      <point x="158" y="400"/>
      <point x="158" y="354" type="qcurve" smooth="yes"/>
      <point x="158" y="186" type="line" smooth="yes"/>
      <point x="158" y="140"/>
      <point x="184" y="98"/>
      <point x="210" y="98" type="qcurve" smooth="yes"/>
      <point x="236" y="98"/>
      <point x="263" y="134"/>
      <point x="263" y="171" type="qcurve" smooth="yes"/>
      <point x="263" y="188" type="line"/>
      <point x="378" y="188" type="line"/>
      <point x="378" y="171" type="line" smooth="yes"/>
      <point x="378" y="96"/>
      <point x="318" y="9"/>
      <point x="262" y="-3" type="qcurve"/>
      <point x="262" y="-102" type="line"/>
      <point x="202" y="-102" type="line"/>
      <point x="202" y="-8" type="line"/>
      <point x="122" y="-6"/>
      <point x="39" y="86"/>
      <point x="39" y="187" type="qcurve" smooth="yes"/>
      <point x="39" y="353" type="line" smooth="yes"/>
      <point x="39" y="454"/>
      <point x="122" y="547"/>
      <point x="202" y="549" type="qcurve"/>
      <point x="202" y="650" type="line"/>
      <point x="262" y="650" type="line"/>
      <point x="262" y="544" type="line"/>
      <point x="378" y="518"/>
      <point x="378" y="373" type="qcurve" smooth="yes"/>
      <point x="378" y="352" type="line"/>
    </contour>
  </outline>
</glyph>
<glyph name="currency" format="2">
  <advance width="584"/>
  <unicode hex="00A4"/>
  <outline>
    <contour>
      <point x="398" y="137" type="line"/>
      <point x="349" y="109"/>
      <point x="292" y="110" type="qcurve" smooth="yes"/>
      <point x="233" y="110"/>
      <point x="185" y="137" type="qcurve"/>
      <point x="118" y="71" type="line"/>
      <point x="42" y="147" type="line"/>
      <point x="109" y="215" type="line"/>
      <point x="83" y="261"/>
      <point x="83" y="318" type="qcurve" smooth="yes"/>
      <point x="83" y="373"/>
      <point x="110" y="422" type="qcurve"/>
      <point x="42" y="490" type="line"/>
      <point x="119" y="567" type="line"/>
      <point x="185" y="500" type="line"/>
      <point x="235" y="528"/>
      <point x="292" y="527" type="qcurve" smooth="yes"/>
      <point x="348" y="527"/>
      <point x="397" y="500" type="qcurve"/>
      <point x="466" y="567" type="line"/>
      <point x="542" y="490" type="line"/>
      <point x="474" y="423" type="line"/>
      <point x="502" y="374"/>
      <point x="502" y="318" type="qcurve" smooth="yes"/>
      <point x="502" y="263"/>
      <point x="475" y="215" type="qcurve"/>
      <point x="543" y="146" type="line"/>
      <point x="466" y="70" type="line"/>
    </contour>
    <contour>
      <point x="392" y="274"/>
      <point x="392" y="318" type="qcurve" smooth="yes"/>
      <point x="392" y="362"/>
      <point x="335" y="422"/>
      <point x="292" y="422" type="qcurve" smooth="yes"/>
      <point x="249" y="422"/>
      <point x="193" y="362"/>
      <point x="193" y="318" type="qcurve" smooth="yes"/>
      <point x="193" y="274"/>
      <point x="249" y="215"/>
      <point x="292" y="215" type="qcurve" smooth="yes"/>
      <point x="335" y="215"/>
    </contour>
  </outline>
</glyph>
<glyph name="dieresis" format="2">
  <advance width="512"/>
  <unicode hex="00A8"/>
  <outline>
    <contour>
      <point x="128" y="722" type="line"/>
      <point x="223" y="722" type="line"/>
      <point x="223" y="605" type="line"/>
      <point x="128" y="605" type="line"/>
    </contour>
    <contour>
      <point x="288" y="722" type="line"/>
      <point x="383" y="722" type="line"/>
      <point x="383" y="605" type="line"/>
      <point x="288" y="605" type="line"/>
    </contour>
  </outline>
</glyph>
<glyph name="ordfeminine" format="2">
  <advance width="314"/>
  <unicode hex="00AA"/>
  <outline>
    <contour>
      <point x="265" y="707"/>
      <point x="265" y="659" type="qcurve" smooth="yes"/>
      <point x="265" y="440" type="line"/>
      <point x="191" y="440" type="line"/>
      <point x="191" y="466" type="line"/>
      <point x="177" y="451"/>
      <point x="151" y="435"/>
      <point x="129" y="435" type="qcurve" smooth="yes"/>
      <point x="84" y="435"/>
      <point x="38" y="487"/>
      <point x="38" y="536" type="qcurve" smooth="yes"/>
      <point x="38" y="582"/>
      <point x="99" y="631"/>
      <point x="157" y="631" type="qcurve" smooth="yes"/>
      <point x="187" y="631" type="line"/>
      <point x="187" y="664" type="line" smooth="yes"/>
      <point x="187" y="694"/>
      <point x="154" y="693" type="qcurve" smooth="yes"/>
      <point x="139" y="693"/>
      <point x="120" y="679"/>
      <point x="120" y="667" type="qcurve" smooth="yes"/>
      <point x="120" y="664" type="line"/>
      <point x="47" y="664" type="line"/>
      <point x="47" y="666" type="line" smooth="yes"/>
      <point x="47" y="715"/>
      <point x="106" y="764"/>
      <point x="155" y="764" type="qcurve" smooth="yes"/>
      <point x="207" y="764"/>
    </contour>
    <contour>
      <point x="187" y="523"/>
      <point x="187" y="538" type="qcurve" smooth="yes"/>
      <point x="187" y="574" type="line"/>
      <point x="166" y="574" type="line" smooth="yes"/>
      <point x="117" y="574"/>
      <point x="117" y="539" type="qcurve" smooth="yes"/>
      <point x="117" y="525"/>
      <point x="135" y="506"/>
      <point x="152" y="506" type="qcurve" smooth="yes"/>
      <point x="167" y="506"/>
    </contour>
    <contour>
      <point x="143" y="867" type="move" smooth="yes"/>
    </contour>
  </outline>
</glyph>
<glyph name="guillemotleft" format="2">
  <advance width="452"/>
  <unicode hex="00AB"/>
  <outline>
    <contour>
      <point x="14" y="270" type="line"/>
      <point x="213" y="473" type="line"/>
      <point x="213" y="360" type="line"/>
      <point x="125" y="270" type="line"/>
      <point x="213" y="180" type="line"/>
      <point x="213" y="68" type="line"/>
    </contour>
    <contour>
      <point x="212" y="270" type="line"/>
      <point x="411" y="473" type="line"/>
      <point x="411" y="360" type="line"/>
      <point x="322" y="270" type="line"/>
      <point x="411" y="180" type="line"/>
      <point x="411" y="68" type="line"/>
    </contour>
  </outline>
</glyph>
<glyph name="paragraph" format="2">
  <advance width="566"/>
  <unicode hex="00B6"/>
  <outline>
    <contour>
      <point x="213" y="267" type="line"/>
      <point x="163" y="270"/>
      <point x="86" y="331"/>
      <point x="43" y="428"/>
      <point x="43" y="487" type="qcurve" smooth="yes"/>
      <point x="43" y="547"/>
      <point x="93" y="648"/>
      <point x="186" y="707"/>
      <point x="248" y="707" type="qcurve" smooth="yes"/>
      <point x="502" y="707" type="line"/>
      <point x="502" y="-162" type="line"/>
      <point x="389" y="-162" type="line"/>
      <point x="389" y="610" type="line"/>
      <point x="327" y="610" type="line"/>
      <point x="327" y="-162" type="line"/>
      <point x="213" y="-162" type="line"/>
    </contour>
  </outline>
</glyph>
<glyph name="questiondown" format="2">
  <advance width="385"/>
  <unicode hex="00BF"/>
  <outline>
    <contour>
      <point x="140" y="541" type="line"/>
      <point x="252" y="541" type="line"/>
      <point x="252" y="411" type="line"/>
      <point x="140" y="411" type="line"/>
    </contour>
    <contour>
      <point x="27" y="-82"/>
      <point x="27" y="-2" type="qcurve" smooth="yes"/>
      <point x="27" y="39"/>
      <point x="44" y="99"/>
      <point x="72" y="139" type="qcurve" smooth="yes"/>
      <point x="113" y="198" type="line" smooth="yes"/>
      <point x="131" y="224"/>
      <point x="140" y="263"/>
      <point x="140" y="297" type="qcurve" smooth="yes"/>
      <point x="140" y="338" type="line"/>
      <point x="252" y="338" type="line"/>
      <point x="252" y="297" type="line" smooth="yes"/>
      <point x="252" y="250"/>
      <point x="240" y="198"/>
      <point x="212" y="155" type="qcurve" smooth="yes"/>
      <point x="176" y="98" type="line" smooth="yes"/>
      <point x="160" y="72"/>
      <point x="147" y="32"/>
      <point x="147" y="0" type="qcurve" smooth="yes"/>
      <point x="147" y="-65"/>
      <point x="197" y="-65" type="qcurve" smooth="yes"/>
      <point x="229" y="-65"/>
      <point x="246" y="-19"/>
      <point x="246" y="36" type="qcurve"/>
      <point x="365" y="36" type="line"/>
      <point x="365" y="-69"/>
      <point x="284" y="-172"/>
      <point x="196" y="-172" type="qcurve" smooth="yes"/>
      <point x="118" y="-172"/>
    </contour>
  </outline>
</glyph>
<glyph name="Eth" format="2">
  <advance width="494"/>
  <unicode hex="00D0"/>
  <outline>
    <contour>
      <point x="456" y="604"/>
      <point x="456" y="504" type="qcurve" smooth="yes"/>
      <point x="456" y="203" type="line" smooth="yes"/>
      <point x="456" y="104"/>
      <point x="343" y="0"/>
      <point x="253" y="0" type="qcurve" smooth="yes"/>
      <point x="63" y="0" type="line"/>
      <point x="63" y="307" type="line"/>
      <point x="20" y="307" type="line"/>
      <point x="20" y="420" type="line"/>
      <point x="63" y="420" type="line"/>
      <point x="63" y="707" type="line"/>
      <point x="259" y="707" type="line" smooth="yes"/>
      <point x="348" y="707"/>
    </contour>
    <contour>
      <point x="330" y="482" type="line" smooth="yes"/>
      <point x="330" y="536"/>
      <point x="293" y="593"/>
      <point x="256" y="593" type="qcurve" smooth="yes"/>
      <point x="188" y="593" type="line"/>
      <point x="188" y="420" type="line"/>
      <point x="276" y="420" type="line"/>
      <point x="276" y="307" type="line"/>
      <point x="188" y="307" type="line"/>
      <point x="188" y="113" type="line"/>
      <point x="256" y="113" type="line" smooth="yes"/>
      <point x="292" y="113"/>
      <point x="330" y="168"/>
      <point x="330" y="217" type="qcurve" smooth="yes"/>
    </contour>
  </outline>
</glyph>
<glyph name="Oslash" format="2">
  <advance width="479"/>
  <unicode hex="00D8"/>
  <outline>
    <contour>
      <point x="401" y="648" type="line"/>
      <point x="440" y="596"/>
      <point x="440" y="513" type="qcurve" smooth="yes"/>
      <point x="440" y="195" type="line" smooth="yes"/>
      <point x="440" y="97"/>
      <point x="327" y="-8"/>
      <point x="237" y="-8" type="qcurve" smooth="yes"/>
      <point x="167" y="-8"/>
      <point x="119" y="23" type="qcurve"/>
      <point x="99" y="-20" type="line"/>
      <point x="39" y="-20" type="line"/>
      <point x="76" y="62" type="line"/>
      <point x="39" y="112"/>
      <point x="39" y="195" type="qcurve" smooth="yes"/>
      <point x="39" y="513" type="line" smooth="yes"/>
      <point x="39" y="613"/>
      <point x="152" y="717"/>
      <point x="244" y="717" type="qcurve" smooth="yes"/>
      <point x="313" y="717"/>
      <point x="358" y="687" type="qcurve"/>
      <point x="380" y="735" type="line"/>
      <point x="440" y="735" type="line"/>
    </contour>
    <contour>
      <point x="165" y="259" type="line"/>
      <point x="302" y="563" type="line"/>
      <point x="286" y="603"/>
      <point x="241" y="603" type="qcurve" smooth="yes"/>
      <point x="201" y="603"/>
      <point x="165" y="548"/>
      <point x="165" y="493" type="qcurve" smooth="yes"/>
    </contour>
    <contour>
      <point x="314" y="456" type="line"/>
      <point x="175" y="147" type="line"/>
      <point x="192" y="105"/>
      <point x="241" y="105" type="qcurve" smooth="yes"/>
      <point x="277" y="105"/>
      <point x="314" y="160"/>
      <point x="314" y="209" type="qcurve" smooth="yes"/>
    </contour>
  </outline>
</glyph>
<glyph name="Thorn" format="2">
  <advance width="444"/>
  <unicode hex="00DE"/>
  <outline>
    <contour>
      <point x="427" y="482"/>
      <point x="427" y="371" type="qcurve" smooth="yes"/>
      <point x="427" y="258"/>
      <point x="336" y="147"/>
      <point x="233" y="147" type="qcurve" smooth="yes"/>
      <point x="168" y="147" type="line"/>
      <point x="168" y="0" type="line"/>
      <point x="43" y="0" type="line"/>
      <point x="43" y="707" type="line"/>
      <point x="168" y="707" type="line"/>
      <point x="168" y="593" type="line"/>
      <point x="233" y="593" type="line" smooth="yes"/>
      <point x="338" y="593"/>
    </contour>
    <contour>
      <point x="301" y="314"/>
      <point x="301" y="371" type="qcurve" smooth="yes"/>
      <point x="301" y="426"/>
      <point x="269" y="479"/>
      <point x="229" y="479" type="qcurve" smooth="yes"/>
      <point x="168" y="479" type="line"/>
      <point x="168" y="260" type="line"/>
      <point x="229" y="260" type="line" smooth="yes"/>
      <point x="269" y="260"/>
    </contour>
  </outline>
</glyph>
<glyph name="germandbls" format="2">
  <advance width="430"/>
  <unicode hex="00DF"/>
  <outline>
    <contour>
      <point x="217" y="95" type="line"/>
      <point x="233" y="95" type="line" smooth="yes"/>
      <point x="251" y="95"/>
      <point x="268" y="121"/>
      <point x="272" y="173"/>
      <point x="272" y="230" type="qcurve" smooth="yes"/>
      <point x="272" y="282"/>
      <point x="268" y="332"/>
      <point x="252" y="358"/>
      <point x="233" y="358" type="qcurve" smooth="yes"/>
      <point x="215" y="358" type="line"/>
      <point x="215" y="458" type="line"/>
      <point x="231" y="458" type="line" smooth="yes"/>
      <point x="255" y="458"/>
      <point x="267" y="495"/>
      <point x="267" y="539" type="qcurve" smooth="yes"/>
      <point x="267" y="575"/>
      <point x="242" y="610"/>
      <point x="215" y="610" type="qcurve" smooth="yes"/>
      <point x="188" y="610"/>
      <point x="161" y="578"/>
      <point x="161" y="547" type="qcurve" smooth="yes"/>
      <point x="161" y="0" type="line"/>
      <point x="42" y="0" type="line"/>
      <point x="42" y="531" type="line" smooth="yes"/>
      <point x="42" y="716"/>
      <point x="215" y="717" type="qcurve" smooth="yes"/>
      <point x="296" y="717"/>
      <point x="386" y="628"/>
      <point x="386" y="550" type="qcurve" smooth="yes"/>
      <point x="386" y="495"/>
      <point x="364" y="440"/>
      <point x="331" y="417" type="qcurve"/>
      <point x="358" y="401"/>
      <point x="383" y="360"/>
      <point x="391" y="294"/>
      <point x="391" y="230" type="qcurve" smooth="yes"/>
      <point x="391" y="136"/>
      <point x="373" y="42"/>
      <point x="310" y="-5"/>
      <point x="244" y="-5" type="qcurve" smooth="yes"/>
      <point x="217" y="-5" type="line"/>
    </contour>
  </outline>
</glyph>
<glyph name="ae" format="2">
  <advance width="635"/>
  <unicode hex="00E6"/>
  <outline>
    <contour>
      <point x="373" y="179" type="line" smooth="yes"/>
      <point x="373" y="96"/>
      <point x="426" y="96" type="qcurve" smooth="yes"/>
      <point x="478" y="96"/>
      <point x="478" y="165" type="qcurve" smooth="yes"/>
      <point x="478" y="170" type="line"/>
      <point x="594" y="170" type="line"/>
      <point x="594" y="164" type="line" smooth="yes"/>
      <point x="594" y="79"/>
      <point x="507" y="-8"/>
      <point x="427" y="-8" type="qcurve" smooth="yes"/>
      <point x="349" y="-8"/>
      <point x="308" y="32" type="qcurve"/>
      <point x="260" y="-8"/>
      <point x="193" y="-8" type="qcurve" smooth="yes"/>
      <point x="120" y="-8"/>
      <point x="31" y="82"/>
      <point x="31" y="159" type="qcurve" smooth="yes"/>
      <point x="31" y="235"/>
      <point x="123" y="317"/>
      <point x="209" y="317" type="qcurve" smooth="yes"/>
      <point x="254" y="317" type="line"/>
      <point x="254" y="386" type="line" smooth="yes"/>
      <point x="254" y="415"/>
      <point x="228" y="444"/>
      <point x="204" y="444" type="qcurve" smooth="yes"/>
      <point x="181" y="444"/>
      <point x="155" y="416"/>
      <point x="155" y="391" type="qcurve" smooth="yes"/>
      <point x="155" y="383" type="line"/>
      <point x="45" y="383" type="line"/>
      <point x="45" y="387" type="line" smooth="yes"/>
      <point x="45" y="467"/>
      <point x="135" y="549"/>
      <point x="207" y="549" type="qcurve" smooth="yes"/>
      <point x="272" y="549"/>
      <point x="314" y="516" type="qcurve"/>
      <point x="354" y="549"/>
      <point x="423" y="549" type="qcurve" smooth="yes"/>
      <point x="506" y="549"/>
      <point x="597" y="445"/>
      <point x="597" y="336" type="qcurve" smooth="yes"/>
      <point x="597" y="228" type="line"/>
      <point x="373" y="228" type="line"/>
    </contour>
    <contour>
      <point x="373" y="400"/>
      <point x="373" y="354" type="qcurve" smooth="yes"/>
      <point x="373" y="314" type="line"/>
      <point x="478" y="314" type="line"/>
      <point x="478" y="354" type="line" smooth="yes"/>
      <point x="478" y="400"/>
      <point x="452" y="442"/>
      <point x="426" y="442" type="qcurve" smooth="yes"/>
      <point x="399" y="442"/>
    </contour>
    <contour>
      <point x="254" y="234" type="line"/>
      <point x="223" y="234" type="line" smooth="yes"/>
      <point x="187" y="234"/>
      <point x="150" y="202"/>
      <point x="150" y="164" type="qcurve" smooth="yes"/>
      <point x="150" y="130"/>
      <point x="176" y="95"/>
      <point x="202" y="95" type="qcurve" smooth="yes"/>
      <point x="225" y="95"/>
      <point x="254" y="131"/>
      <point x="254" y="162" type="qcurve" smooth="yes"/>
    </contour>
  </outline>
</glyph>
<glyph name="divide" format="2">
  <advance width="429"/>
  <unicode hex="00F7"/>
  <outline>
    <contour>
      <point x="150" y="424"/>
      <point x="150" y="451" type="qcurve" smooth="yes"/>
      <point x="150" y="478"/>
      <point x="187" y="515"/>
      <point x="214" y="515" type="qcurve" smooth="yes"/>
      <point x="241" y="515"/>
      <point x="280" y="477"/>
      <point x="280" y="451" type="qcurve" smooth="yes"/>
      <point x="280" y="424"/>
      <point x="241" y="385"/>
      <point x="214" y="385" type="qcurve" smooth="yes"/>
      <point x="187" y="385"/>
    </contour>
    <contour>
      <point x="33" y="339" type="line"/>
      <point x="396" y="339" type="line"/>
      <point x="396" y="225" type="line"/>
      <point x="33" y="225" type="line"/>
    </contour>
    <contour>
      <point x="150" y="91"/>
      <point x="150" y="118" type="qcurve" smooth="yes"/>
      <point x="150" y="145"/>
      <point x="187" y="183"/>
      <point x="214" y="183" type="qcurve" smooth="yes"/>
      <point x="241" y="183"/>
      <point x="280" y="144"/>
      <point x="280" y="118" type="qcurve" smooth="yes"/>
      <point x="280" y="91"/>
      <point x="241" y="53"/>
      <point x="214" y="53" type="qcurve" smooth="yes"/>
      <point x="187" y="53"/>
    </contour>
  </outline>
</glyph>
<glyph name="oslash" format="2">
  <advance width="420"/>
  <unicode hex="00F8"/>
  <outline>
    <contour>
      <point x="346" y="494" type="line"/>
      <point x="382" y="447"/>
      <point x="382" y="353" type="qcurve" smooth="yes"/>
      <point x="382" y="187" type="line" smooth="yes"/>
      <point x="382" y="84"/>
      <point x="295" y="-8"/>
      <point x="211" y="-8" type="qcurve" smooth="yes"/>
      <point x="153" y="-8"/>
      <point x="115" y="12" type="qcurve"/>
      <point x="94" y="-30" type="line"/>
      <point x="39" y="-30" type="line"/>
      <point x="76" y="46" type="line"/>
      <point x="39" y="96"/>
      <point x="39" y="187" type="qcurve" smooth="yes"/>
      <point x="39" y="353" type="line" smooth="yes"/>
      <point x="39" y="456"/>
      <point x="127" y="549"/>
      <point x="211" y="549" type="qcurve" smooth="yes"/>
      <point x="270" y="549"/>
      <point x="307" y="527" type="qcurve"/>
      <point x="327" y="568" type="line"/>
      <point x="382" y="568" type="line"/>
    </contour>
    <contour>
      <point x="158" y="217" type="line"/>
      <point x="253" y="416" type="line"/>
      <point x="241" y="443"/>
      <point x="210" y="442" type="qcurve" smooth="yes"/>
      <point x="184" y="442"/>
      <point x="158" y="400"/>
      <point x="158" y="354" type="qcurve" smooth="yes"/>
    </contour>
    <contour>
      <point x="263" y="322" type="line"/>
      <point x="168" y="124" type="line"/>
      <point x="181" y="98"/>
      <point x="210" y="98" type="qcurve" smooth="yes"/>
      <point x="237" y="98"/>
      <point x="263" y="140"/>
      <point x="263" y="186" type="qcurve" smooth="yes"/>
    </contour>
  </outline>
</glyph>
<glyph name="OE" format="2">
  <advance width="656"/>
  <unicode hex="0152"/>
  <outline>
    <contour>
      <point x="440" y="593" type="line"/>
      <point x="440" y="416" type="line"/>
      <point x="604" y="416" type="line"/>
      <point x="604" y="303" type="line"/>
      <point x="440" y="303" type="line"/>
      <point x="440" y="113" type="line"/>
      <point x="631" y="113" type="line"/>
      <point x="631" y="0" type="line"/>
      <point x="332" y="0" type="line"/>
      <point x="332" y="29" type="line"/>
      <point x="284" y="-8"/>
      <point x="220" y="-8" type="qcurve" smooth="yes"/>
      <point x="131" y="-8"/>
      <point x="39" y="93"/>
      <point x="39" y="195" type="qcurve" smooth="yes"/>
      <point x="39" y="513" type="line" smooth="yes"/>
      <point x="39" y="615"/>
      <point x="136" y="717"/>
      <point x="226" y="717" type="qcurve" smooth="yes"/>
      <point x="286" y="717"/>
      <point x="332" y="685" type="qcurve"/>
      <point x="332" y="707" type="line"/>
      <point x="631" y="707" type="line"/>
      <point x="631" y="593" type="line"/>
    </contour>
    <contour>
      <point x="314" y="493" type="line" smooth="yes"/>
      <point x="314" y="547"/>
      <point x="278" y="603"/>
      <point x="241" y="603" type="qcurve" smooth="yes"/>
      <point x="201" y="603"/>
      <point x="165" y="548"/>
      <point x="165" y="493" type="qcurve" smooth="yes"/>
      <point x="165" y="209" type="line" smooth="yes"/>
      <point x="165" y="106"/>
      <point x="241" y="105" type="qcurve" smooth="yes"/>
      <point x="277" y="105"/>
      <point x="314" y="160"/>
      <point x="314" y="209" type="qcurve" smooth="yes"/>
    </contour>
  </outline>
</glyph>
<glyph name="oe" format="2">
  <advance width="645"/>
  <unicode hex="0153"/>
  <outline>
    <contour>
      <point x="382" y="179" type="line" smooth="yes"/>
      <point x="382" y="96"/>
      <point x="435" y="96" type="qcurve" smooth="yes"/>
      <point x="487" y="96"/>
      <point x="487" y="165" type="qcurve" smooth="yes"/>
      <point x="487" y="170" type="line"/>
      <point x="602" y="170" type="line"/>
      <point x="602" y="164" type="line" smooth="yes"/>
      <point x="602" y="79"/>
      <point x="516" y="-8"/>
      <point x="435" y="-8" type="qcurve" smooth="yes"/>
      <point x="364" y="-8"/>
      <point x="325" y="25" type="qcurve"/>
      <point x="283" y="-8"/>
      <point x="211" y="-8" type="qcurve" smooth="yes"/>
      <point x="127" y="-8"/>
      <point x="39" y="84"/>
      <point x="39" y="187" type="qcurve" smooth="yes"/>
      <point x="39" y="353" type="line" smooth="yes"/>
      <point x="39" y="456"/>
      <point x="127" y="549"/>
      <point x="211" y="549" type="qcurve" smooth="yes"/>
      <point x="283" y="549"/>
      <point x="325" y="516" type="qcurve"/>
      <point x="364" y="549"/>
      <point x="432" y="549" type="qcurve" smooth="yes"/>
      <point x="515" y="549"/>
      <point x="606" y="444"/>
      <point x="606" y="336" type="qcurve" smooth="yes"/>
      <point x="606" y="228" type="line"/>
      <point x="382" y="228" type="line"/>
    </contour>
    <contour>
      <point x="263" y="354" type="line" smooth="yes"/>
      <point x="263" y="400"/>
      <point x="237" y="442"/>
      <point x="210" y="442" type="qcurve" smooth="yes"/>
      <point x="184" y="442"/>
      <point x="158" y="400"/>
      <point x="158" y="354" type="qcurve" smooth="yes"/>
      <point x="158" y="186" type="line" smooth="yes"/>
      <point x="158" y="140"/>
      <point x="184" y="98"/>
      <point x="210" y="98" type="qcurve" smooth="yes"/>
      <point x="237" y="98"/>
      <point x="263" y="140"/>
      <point x="263" y="186" type="qcurve" smooth="yes"/>
    </contour>
    <contour>
      <point x="382" y="314" type="line"/>
      <point x="487" y="314" type="line"/>
      <point x="487" y="354" type="line" smooth="yes"/>
      <point x="487" y="400"/>
      <point x="461" y="442"/>
      <point x="434" y="442" type="qcurve" smooth="yes"/>
      <point x="408" y="442"/>
      <point x="382" y="400"/>
      <point x="382" y="354" type="qcurve" smooth="yes"/>
    </contour>
  </outline>
</glyph>
<glyph name="florin" format="2">
  <advance width="399"/>
  <unicode hex="0192"/>
  <outline>
    <contour>
      <point x="7" y="-54" type="line"/>
      <point x="30" y="-54" type="line" smooth="yes"/>
      <point x="65" y="-54"/>
      <point x="96" y="-25"/>
      <point x="101" y="15" type="qcurve" smooth="yes"/>
      <point x="143" y="324" type="line"/>
      <point x="70" y="324" type="line"/>
      <point x="70" y="431" type="line"/>
      <point x="158" y="431" type="line"/>
      <point x="172" y="540" type="line" smooth="yes"/>
      <point x="183" y="626"/>
      <point x="268" y="707"/>
      <point x="351" y="707" type="qcurve" smooth="yes"/>
      <point x="392" y="707" type="line"/>
      <point x="392" y="599" type="line"/>
      <point x="365" y="599" type="line" smooth="yes"/>
      <point x="330" y="599"/>
      <point x="298" y="570"/>
      <point x="293" y="530" type="qcurve" smooth="yes"/>
      <point x="280" y="431" type="line"/>
      <point x="354" y="431" type="line"/>
      <point x="354" y="324" type="line"/>
      <point x="264" y="324" type="line"/>
      <point x="222" y="5" type="line" smooth="yes"/>
      <point x="211" y="-82"/>
      <point x="127" y="-162"/>
      <point x="43" y="-162" type="qcurve" smooth="yes"/>
      <point x="7" y="-162" type="line"/>
    </contour>
  </outline>
</glyph>
<glyph name="caron" format="2">
  <advance width="512"/>
  <unicode hex="02C7"/>
  <outline>
    <contour>
      <point x="109" y="746" type="line"/>
      <point x="198" y="746" type="line"/>
      <point x="256" y="666" type="line"/>
      <point x="313" y="746" type="line"/>
      <point x="402" y="746" type="line"/>
      <point x="297" y="595" type="line"/>
      <point x="212" y="595" type="line"/>
    </contour>
  </outline>
</glyph>
<glyph name="dotaccent" format="2">
  <advance width="512"/>
  <unicode hex="02D9"/>
  <outline>
    <contour>
      <point x="197" y="715" type="line"/>
      <point x="315" y="715" type="line"/>
      <point x="315" y="615" type="line"/>
      <point x="197" y="615" type="line"/>
    </contour>
  </outline>
</glyph>
<glyph name="ring" format="2">
  <advance width="512"/>
  <unicode hex="02DA"/>
  <outline>
    <contour>
      <point x="160" y="642"/>
      <point x="160" y="683" type="qcurve" smooth="yes"/>
      <point x="160" y="725"/>
      <point x="215" y="780"/>
      <point x="256" y="780" type="qcurve" smooth="yes"/>
      <point x="297" y="780"/>
      <point x="352" y="725"/>
      <point x="352" y="683" type="qcurve" smooth="yes"/>
      <point x="352" y="642"/>
      <point x="297" y="587"/>
      <point x="256" y="587" type="qcurve" smooth="yes"/>
      <point x="215" y="587"/>
    </contour>
    <contour>
      <point x="301" y="664"/>
      <point x="301" y="683" type="qcurve" smooth="yes"/>
      <point x="301" y="703"/>
      <point x="275" y="730"/>
      <point x="256" y="730" type="qcurve" smooth="yes"/>
      <point x="236" y="730"/>
      <point x="210" y="703"/>
      <point x="210" y="683" type="qcurve" smooth="yes"/>
      <point x="210" y="664"/>
      <point x="237" y="637"/>
      <point x="256" y="637" type="qcurve" smooth="yes"/>
      <point x="275" y="637"/>
    </contour>
  </outline>
</glyph>
<glyph name="uni0302" format="2">
  <advance width="0"/>
  <unicode hex="0302"/>
  <outline>
    <contour>
      <point x="-44" y="750" type="line"/>
      <point x="41" y="750" type="line"/>
      <point x="146" y="598" type="line"/>
      <point x="57" y="598" type="line"/>
      <point x="0" y="680" type="line"/>
      <point x="-58" y="598" type="line"/>
      <point x="-147" y="598" type="line"/>
    </contour>
  </outline>
</glyph>
<glyph name="uni030A" format="2">
  <advance width="0"/>
  <unicode hex="030A"/>
  <outline>
    <contour>
      <point x="-96" y="642"/>
      <point x="-96" y="683" type="qcurve" smooth="yes"/>
      <point x="-96" y="725"/>
      <point x="-41" y="780"/>
      <point x="0" y="780" type="qcurve" smooth="yes"/>
      <point x="41" y="780"/>
      <point x="96" y="725"/>
      <point x="96" y="683" type="qcurve" smooth="yes"/>
      <point x="96" y="642"/>
      <point x="41" y="587"/>
      <point x="0" y="587" type="qcurve" smooth="yes"/>
      <point x="-41" y="587"/>
    </contour>
    <contour>
      <point x="45" y="664"/>
      <point x="45" y="683" type="qcurve" smooth="yes"/>
      <point x="45" y="703"/>
      <point x="19" y="730"/>
      <point x="0" y="730" type="qcurve" smooth="yes"/>
      <point x="-20" y="730"/>
      <point x="-46" y="703"/>
      <point x="-46" y="683" type="qcurve" smooth="yes"/>
      <point x="-46" y="664"/>
      <point x="-20" y="637"/>
      <point x="0" y="637" type="qcurve" smooth="yes"/>
      <point x="19" y="637"/>
    </contour>
  </outline>
</glyph>
<glyph name="quoteright" format="2">
  <advance width="175"/>
  <unicode hex="2019"/>
  <outline>
    <contour>
      <point x="30" y="707" type="line"/>
      <point x="145" y="707" type="line"/>
      <point x="145" y="500" type="line"/>
      <point x="30" y="407" type="line"/>
    </contour>
  </outline>
</glyph>
<glyph name="dagger" format="2">
  <advance width="466"/>
  <unicode hex="2020"/>
  <outline>
    <contour>
      <point x="425" y="382" type="line"/>
      <point x="297" y="382" type="line"/>
      <point x="297" y="-162" type="line"/>
      <point x="171" y="-162" type="line"/>
      <point x="171" y="382" type="line"/>
      <point x="42" y="382" type="line"/>
      <point x="42" y="496" type="line"/>
      <point x="171" y="496" type="line"/>
      <point x="171" y="707" type="line"/>
      <point x="297" y="707" type="line"/>
      <point x="297" y="496" type="line"/>
      <point x="425" y="496" type="line"/>
    </contour>
  </outline>
</glyph>
<glyph name="daggerdbl" format="2">
  <advance width="466"/>
  <unicode hex="2021"/>
  <outline>
    <contour>
      <point x="297" y="382" type="line"/>
      <point x="297" y="171" type="line"/>
      <point x="425" y="171" type="line"/>
      <point x="425" y="57" type="line"/>
      <point x="297" y="57" type="line"/>
      <point x="297" y="-162" type="line"/>
      <point x="171" y="-162" type="line"/>
      <point x="171" y="57" type="line"/>
      <point x="42" y="57" type="line"/>
      <point x="42" y="171" type="line"/>
      <point x="171" y="171" type="line"/>
      <point x="171" y="382" type="line"/>
      <point x="42" y="382" type="line"/>
      <point x="42" y="496" type="line"/>
      <point x="171" y="496" type="line"/>
      <point x="171" y="707" type="line"/>
      <point x="297" y="707" type="line"/>
      <point x="297" y="496" type="line"/>
      <point x="425" y="496" type="line"/>
      <point x="425" y="382" type="line"/>
    </contour>
  </outline>
</glyph>
<glyph name="bullet" format="2">
  <advance width="405"/>
  <unicode hex="2022"/>
  <outline>
    <contour>
      <point x="62" y="256"/>
      <point x="62" y="315" type="qcurve" smooth="yes"/>
      <point x="62" y="375"/>
      <point x="142" y="455"/>
      <point x="202" y="455" type="qcurve" smooth="yes"/>
      <point x="262" y="455"/>
      <point x="342" y="375"/>
      <point x="342" y="315" type="qcurve" smooth="yes"/>
      <point x="342" y="256"/>
      <point x="262" y="176"/>
      <point x="202" y="176" type="qcurve" smooth="yes"/>
      <point x="142" y="176"/>
    </contour>
  </outline>
</glyph>
<glyph name="Euro" format="2">
  <advance width="464"/>
  <unicode hex="20AC"/>
  <outline>
    <contour>
      <point x="77" y="85"/>
      <point x="77" y="179" type="qcurve" smooth="yes"/>
      <point x="77" y="247" type="line"/>
      <point x="20" y="247" type="line"/>
      <point x="20" y="330" type="line"/>
      <point x="77" y="330" type="line"/>
      <point x="77" y="382" type="line"/>
      <point x="20" y="382" type="line"/>
      <point x="20" y="465" type="line"/>
      <point x="77" y="465" type="line"/>
      <point x="77" y="529" type="line" smooth="yes"/>
      <point x="77" y="620"/>
      <point x="166" y="717"/>
      <point x="253" y="717" type="qcurve" smooth="yes"/>
      <point x="338" y="717"/>
      <point x="425" y="624"/>
      <point x="426" y="532" type="qcurve"/>
      <point x="308" y="532" type="line"/>
      <point x="307" y="570"/>
      <point x="283" y="606"/>
      <point x="256" y="606" type="qcurve" smooth="yes"/>
      <point x="227" y="606"/>
      <point x="203" y="569"/>
      <point x="203" y="532" type="qcurve" smooth="yes"/>
      <point x="203" y="465" type="line"/>
      <point x="360" y="465" type="line"/>
      <point x="346" y="382" type="line"/>
      <point x="203" y="382" type="line"/>
      <point x="203" y="330" type="line"/>
      <point x="338" y="330" type="line"/>
      <point x="323" y="247" type="line"/>
      <point x="203" y="247" type="line"/>
      <point x="203" y="178" type="line" smooth="yes"/>
      <point x="203" y="139"/>
      <point x="226" y="101"/>
      <point x="254" y="101" type="qcurve" smooth="yes"/>
      <point x="281" y="101"/>
      <point x="306" y="138"/>
      <point x="308" y="175" type="qcurve"/>
      <point x="426" y="175" type="line"/>
      <point x="419" y="-9"/>
      <point x="252" y="-9" type="qcurve" smooth="yes"/>
      <point x="163" y="-9"/>
    </contour>
  </outline>
</glyph>
<glyph name="four.sups" format="2">
  <advance width="293"/>
  <outline>
    <contour>
      <point x="273" y="506" type="line"/>
      <point x="244" y="506" type="line"/>
      <point x="244" y="440" type="line"/>
      <point x="160" y="440" type="line"/>
      <point x="160" y="506" type="line"/>
      <point x="18" y="506" type="line"/>
      <point x="18" y="582" type="line"/>
      <point x="112" y="867" type="line"/>
      <point x="196" y="867" type="line"/>
      <point x="103" y="582" type="line"/>
      <point x="160" y="582" type="line"/>
      <point x="160" y="665" type="line"/>
      <point x="244" y="665" type="line"/>
      <point x="244" y="582" type="line"/>
      <point x="273" y="582" type="line"/>
    </contour>
  </outline>
</glyph>
<glyph name="t_t" format="2">
  <advance width="595"/>
  <outline>
    <contour>
      <point x="485" y="458" type="line"/>
      <point x="485" y="175" type="line" smooth="yes"/>
      <point x="485" y="106"/>
      <point x="554" y="106" type="qcurve" smooth="yes"/>
      <point x="558" y="106" type="line"/>
      <point x="558" y="0" type="line"/>
      <point x="554" y="0" type="line" smooth="yes"/>
      <point x="462" y="0"/>
      <point x="367" y="81"/>
      <point x="367" y="168" type="qcurve" smooth="yes"/>
      <point x="367" y="458" type="line"/>
      <point x="199" y="458" type="line"/>
      <point x="199" y="175" type="line" smooth="yes"/>
      <point x="199" y="106"/>
      <point x="267" y="106" type="qcurve" smooth="yes"/>
      <point x="271" y="106" type="line"/>
      <point x="271" y="0" type="line"/>
      <point x="267" y="0" type="line" smooth="yes"/>
      <point x="175" y="0"/>
      <point x="80" y="81"/>
      <point x="80" y="168" type="qcurve" smooth="yes"/>
      <point x="80" y="458" type="line"/>
      <point x="19" y="458" type="line"/>
      <point x="19" y="541" type="line"/>
      <point x="80" y="541" type="line"/>
      <point x="80" y="636" type="line"/>
      <point x="199" y="684" type="line"/>
      <point x="199" y="541" type="line"/>
      <point x="367" y="541" type="line"/>
      <point x="367" y="636" type="line"/>
      <point x="485" y="684" type="line"/>
      <point x="485" y="541" type="line"/>
      <point x="571" y="541" type="line"/>
      <point x="571" y="458" type="line"/>
    </contour>
  </outline>
</glyph>
<glyph name="three.sups" format="2">
  <advance width="284"/>
  <outline>
    <contour>
      <point x="29" y="484"/>
      <point x="29" y="530" type="qcurve" smooth="yes"/>
      <point x="29" y="562" type="line"/>
      <point x="111" y="562" type="line"/>
      <point x="111" y="538" type="line" smooth="yes"/>
      <point x="111" y="510"/>
      <point x="139" y="510" type="qcurve" smooth="yes"/>
      <point x="156" y="510"/>
      <point x="169" y="524"/>
      <point x="169" y="542" type="qcurve" smooth="yes"/>
      <point x="169" y="582" type="line" smooth="yes"/>
      <point x="169" y="604"/>
      <point x="156" y="622"/>
      <point x="134" y="622" type="qcurve" smooth="yes"/>
      <point x="118" y="622" type="line"/>
      <point x="118" y="697" type="line"/>
      <point x="136" y="697" type="line" smooth="yes"/>
      <point x="155" y="697"/>
      <point x="169" y="714"/>
      <point x="169" y="732" type="qcurve" smooth="yes"/>
      <point x="169" y="765" type="line" smooth="yes"/>
      <point x="169" y="781"/>
      <point x="156" y="797"/>
      <point x="139" y="797" type="qcurve" smooth="yes"/>
      <point x="110" y="797"/>
      <point x="111" y="769" type="qcurve" smooth="yes"/>
      <point x="111" y="743" type="line"/>
      <point x="29" y="743" type="line"/>
      <point x="29" y="774" type="line" smooth="yes"/>
      <point x="29" y="821"/>
      <point x="88" y="873"/>
      <point x="140" y="873" type="qcurve" smooth="yes"/>
      <point x="194" y="873"/>
      <point x="253" y="821"/>
      <point x="253" y="774" type="qcurve" smooth="yes"/>
      <point x="253" y="739" type="line" smooth="yes"/>
      <point x="253" y="709"/>
      <point x="233" y="676"/>
      <point x="206" y="663" type="qcurve"/>
      <point x="235" y="651"/>
      <point x="253" y="617"/>
      <point x="253" y="587" type="qcurve" smooth="yes"/>
      <point x="253" y="540" type="line" smooth="yes"/>
      <point x="253" y="489"/>
      <point x="194" y="434"/>
      <point x="140" y="434" type="qcurve" smooth="yes"/>
      <point x="86" y="434"/>
    </contour>
  </outline>
</glyph>
